<svg xmlns="http://www.w3.org/2000/svg" width="24" height="24" viewBox="0 0 24 24">
	<path fill="#fff" d="M10.0533 0C8.23178 0 6.89962 0.70496 6.10195 1.77452C5.60862 2.43599 5.34697 3.20198 5.28561 3.94842H3.08336C1.41475 3.94842 0.0259637 5.27933 0.0259637 6.95706V12.0217H1.02596C1.50895 12.0217 2.20596 12.1114 2.74347 12.3922C3.21781 12.64 3.53995 13.0049 3.53995 13.7073C3.53995 14.8258 3.09819 15.2861 2.66306 15.5331C2.13929 15.8304 1.47459 15.8907 1.02596 15.8907H0.0294409L0.0259698 16.8872C0.0208575 18.3549 0.0182714 19.3806 0.0169633 20.0395C0.0163093 20.3689 0.0159747 20.6067 0.0158036 20.7622L0.015625 20.9914C0.015625 22.6755 1.42136 24 3.08336 24H16.5237C18.1857 24 19.5914 22.6755 19.5914 20.9914V17.8856C20.0579 17.8408 20.5712 17.7187 21.0597 17.4766C21.5858 17.2157 22.098 16.8074 22.4737 16.1967C22.8493 15.586 23.0526 14.831 23.0526 13.9327C23.0526 12.1163 22.2604 10.9195 21.1705 10.3059C20.6693 10.0238 20.1171 9.87454 19.5914 9.84059V6.95706C19.5914 5.27289 18.1857 3.94842 16.5237 3.94842H14.274C14.2582 3.84011 14.2382 3.73275 14.2149 3.62731C14.0967 3.09395 13.874 2.52838 13.544 2.00625C12.8818 0.958344 11.7195 0 10.0533 0ZM7.31793 4.72902C7.1978 4.19481 7.30297 3.5095 7.70517 2.97021C8.08062 2.46678 8.78442 2 10.0533 2C10.8548 2 11.4507 2.43758 11.8534 3.07474C12.0559 3.39514 12.1923 3.74439 12.2622 4.05979C12.3356 4.39125 12.3197 4.61042 12.2977 4.69364L11.9671 5.94842H16.5237C17.1362 5.94842 17.5914 6.43173 17.5914 6.95706V12.5113L18.9966 11.8886C19.1598 11.8162 19.6933 11.7695 20.1894 12.0487C20.5914 12.275 21.0526 12.7689 21.0526 13.9327C21.0526 14.5245 20.9212 14.9033 20.7701 15.1489C20.6191 15.3944 20.4127 15.565 20.1714 15.6847C19.6433 15.9465 19.025 15.9248 18.8327 15.877L17.5914 15.5683V20.9914C17.5914 21.5167 17.1362 22 16.5237 22H3.08336C2.47086 22 2.01562 21.516 2.01562 20.9907L2.0158 20.7644C2.01597 20.6095 2.01631 20.3724 2.01696 20.0434C2.01797 19.5334 2.01975 18.8028 2.02288 17.8166C2.52427 17.7389 3.10397 17.5825 3.65031 17.2724C4.72301 16.6636 5.53995 15.5322 5.53995 13.7073C5.53995 12.1201 4.66986 11.1422 3.6696 10.6196C3.12826 10.3367 2.54592 10.1812 2.02596 10.1002V6.95706C2.02596 6.42529 2.47746 5.94842 3.08336 5.94842H7.59215L7.31793 4.72902ZM14.4448 12.9744L10.029 8.58582L8.61914 10.0044L11.6327 12.9994L8.69868 16.0208L10.1335 17.4141L14.4448 12.9744Z"></path>
</svg>