<svg xmlns="http://www.w3.org/2000/svg" width="512" height="512" fill="none"><path fill="url(#a)" d="M272.43 429.827c93.573 0 169.429-75.856 169.429-169.428 0-93.573-75.856-169.429-169.429-169.429-93.572 0-169.428 75.856-169.428 169.429 0 45.133 17.648 86.145 46.419 116.511l-9.282 43.319c-1.771 8.263 6.871 14.861 14.376 10.975l39.621-20.513c23.418 12.224 50.049 19.136 78.294 19.136Z"/><path fill="url(#b)" fill-opacity=".9" d="M272.43 429.827c93.573 0 169.429-75.856 169.429-169.428 0-93.573-75.856-169.429-169.429-169.429-93.572 0-169.428 75.856-169.428 169.429 0 45.133 17.648 86.145 46.419 116.511l-9.282 43.319c-1.771 8.263 6.871 14.861 14.376 10.975l39.621-20.513c23.418 12.224 50.049 19.136 78.294 19.136Z"/><path fill="url(#c)" d="M272.43 429.827c93.573 0 169.429-75.856 169.429-169.428 0-93.573-75.856-169.429-169.429-169.429-93.572 0-169.428 75.856-169.428 169.429 0 45.133 17.648 86.145 46.419 116.511l-9.282 43.319c-1.771 8.263 6.871 14.861 14.376 10.975l39.621-20.513c23.418 12.224 50.049 19.136 78.294 19.136Z"/><path fill="url(#d)" fill-opacity=".8" d="M272.43 429.827c93.573 0 169.429-75.856 169.429-169.428 0-93.573-75.856-169.429-169.429-169.429-93.572 0-169.428 75.856-169.428 169.429 0 45.133 17.648 86.145 46.419 116.511l-9.282 43.319c-1.771 8.263 6.871 14.861 14.376 10.975l39.621-20.513c23.418 12.224 50.049 19.136 78.294 19.136Z"/><path fill="url(#e)" d="M272.43 429.827c93.573 0 169.429-75.856 169.429-169.428 0-93.573-75.856-169.429-169.429-169.429-93.572 0-169.428 75.856-169.428 169.429 0 45.133 17.648 86.145 46.419 116.511l-9.282 43.319c-1.771 8.263 6.871 14.861 14.376 10.975l39.621-20.513c23.418 12.224 50.049 19.136 78.294 19.136Z"/><path fill="url(#f)" d="M272.43 429.827c93.573 0 169.429-75.856 169.429-169.428 0-93.573-75.856-169.429-169.429-169.429-93.572 0-169.428 75.856-169.428 169.429 0 45.133 17.648 86.145 46.419 116.511l-9.282 43.319c-1.771 8.263 6.871 14.861 14.376 10.975l39.621-20.513c23.418 12.224 50.049 19.136 78.294 19.136Z"/><path fill="url(#g)" fill-opacity=".7" d="M272.43 429.827c93.573 0 169.429-75.856 169.429-169.428 0-93.573-75.856-169.429-169.429-169.429-93.572 0-169.428 75.856-169.428 169.429 0 45.133 17.648 86.145 46.419 116.511l-9.282 43.319c-1.771 8.263 6.871 14.861 14.376 10.975l39.621-20.513c23.418 12.224 50.049 19.136 78.294 19.136Z"/><path fill="#2B2723" d="M444.48 92.912c-17.679-17.68-46.334-17.68-64.014 0l-22.02 22.02-78.007 78.007a154.538 154.538 0 0 0-45.265 109.279c40.985 0 80.3-16.279 109.279-45.265l76.498-76.498 23.529-23.529c17.68-17.68 17.68-46.335 0-64.014Z"/><path fill="url(#h)" d="M444.48 92.912c-17.679-17.68-46.334-17.68-64.014 0l-22.02 22.02-78.007 78.007a154.538 154.538 0 0 0-45.265 109.279c40.985 0 80.3-16.279 109.279-45.265l76.498-76.498 23.529-23.529c17.68-17.68 17.68-46.335 0-64.014Z"/><path fill="url(#i)" d="M444.48 92.912c-17.679-17.68-46.334-17.68-64.014 0l-22.02 22.02-78.007 78.007a154.538 154.538 0 0 0-45.265 109.279c40.985 0 80.3-16.279 109.279-45.265l76.498-76.498 23.529-23.529c17.68-17.68 17.68-46.335 0-64.014Z"/><path fill="url(#j)" fill-rule="evenodd" d="M421.535 179.871c-14.626-27.025-36.385-49.625-62.753-65.275l-.336.336-78.007 78.007a154.54 154.54 0 0 0-45.265 109.279c40.985 0 80.3-16.279 109.279-45.265l76.498-76.498.584-.584Z" clip-rule="evenodd"/><path fill="url(#k)" fill-opacity=".7" fill-rule="evenodd" d="M421.535 179.871c-14.626-27.025-36.385-49.625-62.753-65.275l-.336.336-78.007 78.007a154.54 154.54 0 0 0-45.265 109.279c40.985 0 80.3-16.279 109.279-45.265l76.498-76.498.584-.584Z" clip-rule="evenodd"/><path fill="#414141" fill-rule="evenodd" d="m422.539 181.804-76.672 76.563a156.527 156.527 0 0 1-110.693 45.851h-2v-2a156.542 156.542 0 0 1 45.85-110.694l78.1-77.925 1.658.997c26.678 15.834 47.954 37.931 62.753 65.274l1.004 1.934Zm-78.086 75.149 77.082-77.083c-14.626-27.025-36.385-49.624-62.753-65.274l-78.343 78.343a154.532 154.532 0 0 0-45.265 109.279 154.53 154.53 0 0 0 109.279-45.265Z" clip-rule="evenodd"/><circle cx="99.159" cy="288.713" r="22.015" fill="url(#l)" transform="rotate(-8.105 99.16 288.713)"/><circle cx="99.159" cy="288.713" r="22.015" fill="url(#m)" fill-opacity=".8" transform="rotate(-8.105 99.16 288.713)"/><circle cx="146.901" cy="288.713" r="22.015" fill="url(#n)" transform="rotate(-8.105 146.901 288.713)"/><circle cx="146.901" cy="288.713" r="22.015" fill="url(#o)" fill-opacity=".5" transform="rotate(-8.105 146.901 288.713)"/><circle cx="146.901" cy="288.713" r="22.015" fill="url(#p)" fill-opacity=".8" transform="rotate(-8.105 146.901 288.713)"/><circle cx="194.643" cy="288.713" r="22.015" fill="url(#q)" transform="rotate(-8.105 194.643 288.713)"/><circle cx="194.643" cy="288.713" r="22.015" fill="url(#r)" fill-opacity=".8" transform="rotate(-8.105 194.643 288.713)"/><defs><radialGradient id="b" cx="0" cy="0" r="1" gradientTransform="rotate(-169.875 84.82 149.71) scale(42.6644 71.076)" gradientUnits="userSpaceOnUse"><stop offset=".353" stop-color="#292530"/><stop offset=".587" stop-color="#50485D" stop-opacity="0"/></radialGradient><radialGradient id="c" cx="0" cy="0" r="1" gradientTransform="rotate(-162.25 119.883 141.24) scale(41.9991 69.9676)" gradientUnits="userSpaceOnUse"><stop offset=".353" stop-color="#2D2935"/><stop offset=".64" stop-color="#4A4650" stop-opacity="0"/></radialGradient><radialGradient id="d" cx="0" cy="0" r="1" gradientTransform="rotate(-177.911 54.318 153.572) scale(28.0206 46.6804)" gradientUnits="userSpaceOnUse"><stop offset=".482" stop-color="#2D2935"/><stop offset=".814" stop-color="#574C6B" stop-opacity="0"/></radialGradient><radialGradient id="e" cx="0" cy="0" r="1" gradientTransform="rotate(58.407 -54.75 419.784) scale(97.0774 317.156)" gradientUnits="userSpaceOnUse"><stop offset=".353" stop-color="#2D2D2D"/><stop offset=".52" stop-color="#414141" stop-opacity="0"/></radialGradient><radialGradient id="f" cx="0" cy="0" r="1" gradientTransform="rotate(-44.046 581.218 -28.327) scale(326.679 240.535)" gradientUnits="userSpaceOnUse"><stop offset=".826" stop-color="#434343" stop-opacity="0"/><stop offset=".95" stop-color="#2D2D2D"/></radialGradient><radialGradient id="g" cx="0" cy="0" r="1" gradientTransform="matrix(190.99983 -217.99994 89.08155 78.04847 283 203)" gradientUnits="userSpaceOnUse"><stop offset=".133" stop-color="#858585"/><stop offset=".434" stop-color="#414141" stop-opacity="0"/></radialGradient><radialGradient id="h" cx="0" cy="0" r="1" gradientTransform="rotate(-46.795 444.07 -167.332) scale(234.737 220.762)" gradientUnits="userSpaceOnUse"><stop offset=".764" stop-color="#2B2723"/><stop offset=".82" stop-color="#6A6763" stop-opacity=".35"/><stop offset="1" stop-color="#6A6763"/></radialGradient><radialGradient id="i" cx="0" cy="0" r="1" gradientTransform="rotate(51.402 101.656 422.977) scale(119.266)" gradientUnits="userSpaceOnUse"><stop offset=".857" stop-color="#2B2723" stop-opacity="0"/><stop offset=".948" stop-color="#2B2723"/></radialGradient><radialGradient id="j" cx="0" cy="0" r="1" gradientTransform="rotate(-102.667 294.134 60.853) scale(292.26 377.511)" gradientUnits="userSpaceOnUse"><stop offset=".305" stop-color="#FDDC4F"/><stop offset=".437" stop-color="#F90"/><stop offset=".586" stop-color="#FF6B00"/><stop offset=".85" stop-color="#AE1007"/></radialGradient><radialGradient id="k" cx="0" cy="0" r="1" gradientTransform="rotate(131.491 174.692 157.067) scale(60.1343 67.9263)" gradientUnits="userSpaceOnUse"><stop offset=".474" stop-color="#AE1007"/><stop offset=".881" stop-color="#AE1007" stop-opacity="0"/></radialGradient><radialGradient id="l" cx="0" cy="0" r="1" gradientTransform="rotate(120.18 -28.368 169.484) scale(45.0871)" gradientUnits="userSpaceOnUse"><stop offset=".05" stop-color="#E8CCFF"/><stop offset=".23" stop-color="#C594FF"/><stop offset=".36" stop-color="#AD6CFF"/><stop offset=".51" stop-color="#8E42FF"/><stop offset=".78" stop-color="#E0538F"/></radialGradient><radialGradient id="m" cx="0" cy="0" r="1" gradientTransform="rotate(97.82 -76.315 187.6) scale(39.0821)" gradientUnits="userSpaceOnUse"><stop offset=".45" stop-color="#fff" stop-opacity="0"/><stop offset=".84" stop-color="#fff"/></radialGradient><radialGradient id="n" cx="0" cy="0" r="1" gradientTransform="rotate(109.108 -23.64 193.081) scale(42.9991)" gradientUnits="userSpaceOnUse"><stop stop-color="#F1FFB7"/><stop offset=".25" stop-color="#B9DC4E"/><stop offset=".654" stop-color="#508F12"/><stop offset="1" stop-color="#FF7C03"/></radialGradient><radialGradient id="o" cx="0" cy="0" r="1" gradientTransform="matrix(0 -15.9421 31.5047 0 146.142 310.728)" gradientUnits="userSpaceOnUse"><stop stop-color="#FFAB5D"/><stop offset="1" stop-color="#FFC499" stop-opacity="0"/></radialGradient><radialGradient id="p" cx="0" cy="0" r="1" gradientTransform="rotate(97.815 -52.446 208.414) scale(39.0796)" gradientUnits="userSpaceOnUse"><stop offset=".446" stop-color="#fff" stop-opacity="0"/><stop offset=".841" stop-color="#fff"/></radialGradient><radialGradient id="q" cx="0" cy="0" r="1" gradientTransform="matrix(-10.63591 35.5867 -46.6421 -13.94008 199.264 276.95)" gradientUnits="userSpaceOnUse"><stop offset=".012" stop-color="#fff" stop-opacity=".8"/><stop offset=".117" stop-color="#FFE39A"/><stop offset=".237" stop-color="#FFDA3D"/><stop offset=".432" stop-color="#FFB900"/><stop offset=".695" stop-color="#DB8300"/></radialGradient><radialGradient id="r" cx="0" cy="0" r="1" gradientTransform="rotate(97.815 -28.575 229.233) scale(39.0796)" gradientUnits="userSpaceOnUse"><stop offset=".446" stop-color="#fff" stop-opacity="0"/><stop offset=".841" stop-color="#fff"/></radialGradient><linearGradient id="a" x1="421.322" x2="-54.717" y1="69.364" y2="727.399" gradientUnits="userSpaceOnUse"><stop offset=".368" stop-color="#414141"/><stop offset=".703" stop-color="#8661C5"/><stop offset=".891" stop-color="#8661C5"/></linearGradient></defs></svg>