<?xml version="1.0" encoding="iso-8859-1"?>
<!-- Uploaded to: SVG Repo, www.svgrepo.com, Generator: SVG Repo Mixer Tools -->
<svg height="800px" width="800px" version="1.1" id="Layer_1" xmlns="http://www.w3.org/2000/svg" xmlns:xlink="http://www.w3.org/1999/xlink" 
	 viewBox="0 0 512.001 512.001" xml:space="preserve">
<path style="fill:#D9D8DB;" d="M187.567,26.194c0,0-25.146,38.481-38.868,90.014l138.873,154.297l13.731-96.788
	C282.881,90.65,220.512,99.956,187.567,26.194z"/>
<path style="fill:#C8C8CB;" d="M253.867,171.81c-35.776-45.714-131.178-53.138-202.729-99.377c0,0-14.658,59.231,21.18,109.972
	l-0.002,0.003c0,0,11.754,148.405,122.278,148.405l59.273-37.764C271.754,247.479,289.643,217.524,253.867,171.81z"/>
<path style="fill:#E9E9EA;" d="M162.448,326.378C144.377,333.789,51.227,346.245,0,323.003
	c35.909,168.833,201.616,200.624,292.941,121.805c72.941-62.953,54.197-207.47,106.43-233.302
	c-19.455-16.713-18.604-59.042-67.905-59.042s-54.831,56.762-57.722,65.06C246.988,294.297,191.899,314.301,162.448,326.378z"/>
<circle style="fill:#444242;" cx="341.999" cy="196.607" r="8.341"/>
<path style="fill:#A7731B;" d="M402.344,289.951l-22.576-0.085c0.185-48.958,17.677-91.486,51.99-126.405l16.104,15.824
	C417.397,210.286,402.508,246.485,402.344,289.951z"/>
<path style="fill:#A4D95E;" d="M490.679,166.788c-22.948,20.463-61.806,14.337-61.806,14.337s-1.653-39.303,21.296-59.767
	c22.948-20.463,61.806-14.337,61.806-14.337S513.627,146.325,490.679,166.788z"/>
<path style="fill:#84BF7E;" d="M490.679,166.788c-22.948,20.463-61.806,14.337-61.806,14.337l83.101-74.104
	C511.974,107.021,513.627,146.325,490.679,166.788z"/>
</svg>