<svg width="512" height="513" viewBox="0 0 512 513" fill="none" xmlns="http://www.w3.org/2000/svg"><rect x="93.807" y="108.86" width="325.297" height="327.126" rx="72.13" fill="url(#a)"/><rect x="93.807" y="108.86" width="325.297" height="327.126" rx="72.13" fill="url(#b)" fill-opacity=".5"/><rect x="93.807" y="108.86" width="325.297" height="327.126" rx="72.13" fill="url(#c)" fill-opacity=".5"/><path d="M364.746 388.447a30.7 30.7 0 0 1-14.148 3.441h-188.28a30.743 30.743 0 0 1-16.851-5.017c-8.646-5.64-14.382-15.481-14.382-26.688V187.524L239.394 78.022h111.204c17.25 0 31.229 14.195 31.229 31.706v250.455c0 12.336-6.946 23.021-17.084 28.26l.003.004Z" fill="url(#d)"/><path d="M364.746 388.447a30.7 30.7 0 0 1-14.148 3.441h-188.28a30.743 30.743 0 0 1-16.851-5.017c-8.646-5.64-14.382-15.481-14.382-26.688V187.524L239.394 78.022h111.204c17.25 0 31.229 14.195 31.229 31.706v250.455c0 12.336-6.946 23.021-17.084 28.26l.003.004Z" fill="url(#e)" fill-opacity=".27"/><path d="M364.746 388.447a30.7 30.7 0 0 1-14.148 3.441h-188.28a30.743 30.743 0 0 1-16.851-5.017c-8.646-5.64-14.382-15.481-14.382-26.688V187.524L239.394 78.022h111.204c17.25 0 31.229 14.195 31.229 31.706v250.455c0 12.336-6.946 23.021-17.084 28.26l.003.004Z" fill="url(#f)" fill-opacity=".5"/><path d="M213.996 186.735h-83.813L238.191 78.022v84.753c0 13.232-10.834 23.96-24.195 23.96Z" fill="url(#g)"/><path d="M254.989 359.731c37.13 0 67.23-30.1 67.23-67.23 0-4.792 3.66-9.026 8.452-9.026h72.961c11.394 0 20.63 9.236 20.63 20.63v87.675c0 24.415-19.792 44.207-44.206 44.207H132.501c-24.415 0-44.207-19.792-44.207-44.207v-87.675c0-11.394 9.237-20.63 20.63-20.63h70.383c4.792 0 8.452 4.234 8.452 9.026 0 37.13 30.1 67.23 67.23 67.23Z" fill="url(#h)"/><path d="M254.989 359.731c37.13 0 67.23-30.1 67.23-67.23 0-4.792 3.66-9.026 8.452-9.026h72.961c11.394 0 20.63 9.236 20.63 20.63v87.675c0 24.415-19.792 44.207-44.206 44.207H132.501c-24.415 0-44.207-19.792-44.207-44.207v-87.675c0-11.394 9.237-20.63 20.63-20.63h70.383c4.792 0 8.452 4.234 8.452 9.026 0 37.13 30.1 67.23 67.23 67.23Z" fill="url(#i)" fill-opacity=".8"/><path d="M254.989 359.731c37.13 0 67.23-30.1 67.23-67.23 0-4.792 3.66-9.026 8.452-9.026h72.961c11.394 0 20.63 9.236 20.63 20.63v87.675c0 24.415-19.792 44.207-44.206 44.207H132.501c-24.415 0-44.207-19.792-44.207-44.207v-87.675c0-11.394 9.237-20.63 20.63-20.63h70.383c4.792 0 8.452 4.234 8.452 9.026 0 37.13 30.1 67.23 67.23 67.23Z" fill="url(#j)"/><path d="M254.989 359.731c37.13 0 67.23-30.1 67.23-67.23 0-4.792 3.66-9.026 8.452-9.026h72.961c11.394 0 20.63 9.236 20.63 20.63v87.675c0 24.415-19.792 44.207-44.206 44.207H132.501c-24.415 0-44.207-19.792-44.207-44.207v-87.675c0-11.394 9.237-20.63 20.63-20.63h70.383c4.792 0 8.452 4.234 8.452 9.026 0 37.13 30.1 67.23 67.23 67.23Z" fill="url(#k)"/><path d="M254.989 359.731c37.13 0 67.23-30.1 67.23-67.23 0-4.792 3.66-9.026 8.452-9.026h72.961c11.394 0 20.63 9.236 20.63 20.63v87.675c0 24.415-19.792 44.207-44.206 44.207H132.501c-24.415 0-44.207-19.792-44.207-44.207v-87.675c0-11.394 9.237-20.63 20.63-20.63h70.383c4.792 0 8.452 4.234 8.452 9.026 0 37.13 30.1 67.23 67.23 67.23Z" fill="url(#l)" fill-opacity=".4"/><path d="M458.948 54.852c-14.071-13.983-36.878-13.983-50.949 0l-17.527 17.416-62.086 61.696c-23.07 22.925-36.027 54.014-36.027 86.429 32.621 0 63.912-12.875 86.976-35.8l60.886-60.503 18.727-18.609c14.071-13.983 14.071-36.646 0-50.63Z" fill="url(#m)"/><path d="M458.948 54.852c-14.071-13.983-36.878-13.983-50.949 0l-17.527 17.416-62.086 61.696c-23.07 22.925-36.027 54.014-36.027 86.429 32.621 0 63.912-12.875 86.976-35.8l60.886-60.503 18.727-18.609c14.071-13.983 14.071-36.646 0-50.63Z" fill="url(#n)" fill-opacity=".4"/><path d="M458.948 54.852c-14.071-13.983-36.878-13.983-50.949 0l-17.527 17.416-62.086 61.696c-23.07 22.925-36.027 54.014-36.027 86.429 32.621 0 63.912-12.875 86.976-35.8l60.886-60.503 18.727-18.609c14.071-13.983 14.071-36.646 0-50.63Z" fill="url(#o)" fill-opacity=".4"/><path d="M458.948 54.852c-14.071-13.983-36.878-13.983-50.949 0l-17.527 17.416-62.086 61.696c-23.07 22.925-36.027 54.014-36.027 86.429 32.621 0 63.912-12.875 86.976-35.8l60.886-60.503 18.727-18.609c14.071-13.983 14.071-36.646 0-50.63Z" fill="url(#p)"/><path d="M458.948 54.852c-14.071-13.983-36.878-13.983-50.949 0l-17.527 17.416-62.086 61.696c-23.07 22.925-36.027 54.014-36.027 86.429 32.621 0 63.912-12.875 86.976-35.8l60.886-60.503 18.727-18.609c14.071-13.983 14.071-36.646 0-50.63Z" fill="url(#q)" fill-opacity=".4"/><defs><radialGradient id="b" cx="0" cy="0" r="1" gradientUnits="userSpaceOnUse" gradientTransform="rotate(5.575 -2402.286 1702.276) scale(102.943 199.208)"><stop offset=".327" stop-color="#9EA8AE"/><stop offset=".599" stop-color="#EAEDEF" stop-opacity="0"/></radialGradient><radialGradient id="c" cx="0" cy="0" r="1" gradientUnits="userSpaceOnUse" gradientTransform="matrix(107.0002 -79.00012 25.56599 34.62736 364 198.25)"><stop offset=".573" stop-color="#A1A1A1"/><stop offset="1" stop-color="#fff" stop-opacity="0"/></radialGradient><radialGradient id="e" cx="0" cy="0" r="1" gradientUnits="userSpaceOnUse" gradientTransform="matrix(-100 1.0001 -.76178 -76.1694 148 165.412)"><stop offset=".632" stop-color="#B6A698"/><stop offset="1" stop-color="#fff" stop-opacity="0"/></radialGradient><radialGradient id="f" cx="0" cy="0" r="1" gradientUnits="userSpaceOnUse" gradientTransform="matrix(86.99968 -48.00065 17.73589 32.14574 347.005 198.252)"><stop offset=".573" stop-color="#B6A698"/><stop offset="1" stop-color="#fff" stop-opacity="0"/></radialGradient><radialGradient id="k" cx="0" cy="0" r="1" gradientUnits="userSpaceOnUse" gradientTransform="scale(141.278 159.244) rotate(90 .017 1.797)"><stop offset=".504" stop-color="#fff"/><stop offset=".595" stop-color="#fff" stop-opacity="0"/></radialGradient><radialGradient id="l" cx="0" cy="0" r="1" gradientUnits="userSpaceOnUse" gradientTransform="matrix(21.5 -20.00002 44.05798 47.36228 95.5 420.219)"><stop offset=".267" stop-color="#BDBDBD"/><stop offset="1" stop-color="#BDBDBD" stop-opacity="0"/></radialGradient><radialGradient id="m" cx="0" cy="0" r="1" gradientUnits="userSpaceOnUse" gradientTransform="rotate(-62.016 292.638 -132.182) scale(264.503 192.903)"><stop offset=".189" stop-color="#C8F057"/><stop offset=".483" stop-color="#8EE779"/><stop offset=".632" stop-color="#4DC4B1"/><stop offset=".799" stop-color="#009CF3"/><stop offset="1" stop-color="#0078D4"/></radialGradient><radialGradient id="n" cx="0" cy="0" r="1" gradientUnits="userSpaceOnUse" gradientTransform="matrix(76.16022 -59.24003 33.05354 42.49432 321.129 240.732)"><stop offset=".552" stop-color="#3BAB37"/><stop offset="1" stop-color="#6EC16B" stop-opacity="0"/></radialGradient><radialGradient id="p" cx="0" cy="0" r="1" gradientUnits="userSpaceOnUse" gradientTransform="matrix(-28.77155 19.7468 -26.96293 -39.28563 447.5 66.397)"><stop stop-color="#00B7EF"/><stop offset=".373" stop-color="#0099EF"/><stop offset=".672" stop-color="#0083DF" stop-opacity=".543"/><stop offset=".959" stop-color="#006ACB" stop-opacity="0"/></radialGradient><radialGradient id="q" cx="0" cy="0" r="1" gradientUnits="userSpaceOnUse" gradientTransform="rotate(133.15 211.209 123.567) scale(24.7465 42.8303)"><stop offset=".308" stop-color="#E7F9FF"/><stop offset=".412" stop-color="#BFF0FF"/><stop offset="1" stop-color="#BFF0FF" stop-opacity="0"/></radialGradient><linearGradient id="a" x1="399.39" y1="88.156" x2="35.808" y2="635.465" gradientUnits="userSpaceOnUse"><stop offset=".29" stop-color="#E7E7E7"/><stop offset=".628" stop-color="#C9F5FF"/></linearGradient><linearGradient id="d" x1="300" y1="56.25" x2="123.238" y2="583.711" gradientUnits="userSpaceOnUse"><stop stop-color="#FFF6EF"/><stop offset=".447" stop-color="#FFF7F0"/></linearGradient><linearGradient id="g" x1="169.28" y1="142.085" x2="232.082" y2="203.158" gradientUnits="userSpaceOnUse"><stop stop-color="#FAF1EB"/><stop offset=".18" stop-color="#CDBAAB"/><stop offset=".733" stop-color="#EADCD1"/></linearGradient><linearGradient id="h" x1="256.278" y1="283.475" x2="256.278" y2="442.719" gradientUnits="userSpaceOnUse"><stop offset=".099" stop-color="#E7E7E7"/><stop offset=".516" stop-color="#E7E7E7"/><stop offset=".667" stop-color="#D7D7D7"/><stop offset=".818" stop-color="#BCBCBC"/><stop offset=".88" stop-color="#C7C7C7"/><stop offset=".975" stop-color="#F2F2F2"/></linearGradient><linearGradient id="i" x1="223" y1="359.731" x2="81" y2="359.731" gradientUnits="userSpaceOnUse"><stop offset=".835" stop-color="#D7D7D7" stop-opacity="0"/><stop offset=".912" stop-color="#BCBCBC"/><stop offset="1" stop-color="#F2F2F2"/></linearGradient><linearGradient id="j" x1="256.278" y1="283.475" x2="256.278" y2="442.719" gradientUnits="userSpaceOnUse"><stop offset=".017" stop-color="#fff"/><stop offset=".099" stop-color="#fff" stop-opacity="0"/></linearGradient><linearGradient id="o" x1="440.166" y1="138.614" x2="366.824" y2="96.868" gradientUnits="userSpaceOnUse"><stop offset=".1" stop-color="#0056B4"/><stop offset=".881" stop-color="#55A1F4" stop-opacity="0"/></linearGradient></defs></svg>