<svg xmlns="http://www.w3.org/2000/svg" width="180" height="180" fill="none"><path fill="url(#a)" d="M45 0c24.853 0 45 20.147 45 45v56.25H0V45C0 20.147 20.147 0 45 0z"></path><path fill="url(#b)" d="M135 0c-24.853 0-45 20.147-45 45v56.25h90V45c0-24.853-20.147-45-45-45z"></path><path fill="url(#c)" d="M135 73.125c0-24.853-20.147-45-45-45s-45 20.147-45 45 20.147 45 45 45 45-20.147 45-45z"></path><path fill="url(#d)" d="M179.961 43.116c-1.145 27.106-27.383 48.993-54.102 48.993-24.852 0-45 19.675-45 43.946 0 24.27 20.148 43.945 45 43.945C161.871 180 180 147.99 180 115.313V45c0-.631-.013-1.26-.039-1.884z"></path><path fill="url(#e)" d="M0 45v70.313c0 32.677 18.13 64.688 54.14 64.688 24.853 0 45-19.676 45-43.946s-20.147-43.945-45-43.945c-26.717 0-52.965-21.6-54.101-48.984A45.776 45.776 0 000 45z"></path><defs><linearGradient id="a" x1="16.875" x2="36.692" y1="88.125" y2="-5.784" gradientUnits="userSpaceOnUse"><stop stop-color="#053377"></stop><stop offset="1" stop-color="#2F91F2"></stop></linearGradient><linearGradient id="b" x1="150.078" x2="105" y1="13.935" y2="81.563" gradientUnits="userSpaceOnUse"><stop stop-color="#4AC1FF"></stop><stop offset=".927" stop-color="#155EB5"></stop></linearGradient><linearGradient id="c" x1="77.813" x2="121.875" y1="40.313" y2="127.5" gradientUnits="userSpaceOnUse"><stop stop-color="#96DFFF"></stop><stop offset=".413" stop-color="#53ADEE"></stop><stop offset="1" stop-color="#006BB9"></stop></linearGradient><linearGradient id="d" x1="112.659" x2="160.53" y1="108.745" y2="188.336" gradientUnits="userSpaceOnUse"><stop offset=".08" stop-color="#4AC1FF"></stop><stop offset="1" stop-color="#155EB5"></stop></linearGradient><linearGradient id="e" x1="18.814" x2="63.78" y1="77.357" y2="185.55" gradientUnits="userSpaceOnUse"><stop stop-color="#2F91F2"></stop><stop offset="1" stop-color="#053377"></stop></linearGradient></defs></svg>