<svg xmlns="http://www.w3.org/2000/svg" width="20" height="20" fill="none" role="presentation"><path fill="url(#AppListDetail20Color_svg__a)" fill-rule="evenodd" d="M9 5a1 1 0 0 1 1-1h7a1 1 0 1 1 0 2h-7a1 1 0 0 1-1-1m0 3a1 1 0 0 1 1-1h5a1 1 0 1 1 0 2h-5a1 1 0 0 1-1-1m0 4a1 1 0 0 1 1-1h7a1 1 0 1 1 0 2h-7a1 1 0 0 1-1-1m0 3a1 1 0 0 1 1-1h5a1 1 0 1 1 0 2h-5a1 1 0 0 1-1-1" clip-rule="evenodd"></path><path fill="url(#AppListDetail20Color_svg__b)" d="M3.5 4A1.5 1.5 0 0 0 2 5.5v2A1.5 1.5 0 0 0 3.5 9h2A1.5 1.5 0 0 0 7 7.5v-2A1.5 1.5 0 0 0 5.5 4zm0 7A1.5 1.5 0 0 0 2 12.5v2A1.5 1.5 0 0 0 3.5 16h2A1.5 1.5 0 0 0 7 14.5v-2A1.5 1.5 0 0 0 5.5 11z"></path><defs><linearGradient id="AppListDetail20Color_svg__a" x1="7.65" x2="17.1" y1="2.286" y2="16" gradientUnits="userSpaceOnUse"><stop stop-color="#36DFF1"></stop><stop offset="1" stop-color="#0094F0"></stop></linearGradient><linearGradient id="AppListDetail20Color_svg__b" x1="3.189" x2="5.737" y1="5.595" y2="15.361" gradientUnits="userSpaceOnUse"><stop offset="0.125" stop-color="#9C6CFE"></stop><stop offset="1" stop-color="#7A41DC"></stop></linearGradient></defs></svg>