<?xml version="1.0" encoding="iso-8859-1"?>
<!-- Uploaded to: SVG Repo, www.svgrepo.com, Generator: SVG Repo Mixer Tools -->
<svg fill="#5d89bd" height="800px" width="800px" version="1.1" id="Layer_1" xmlns="http://www.w3.org/2000/svg" xmlns:xlink="http://www.w3.org/1999/xlink" 
	 viewBox="0 0 472.615 472.615" xml:space="preserve">
<g>
	<g>
		<path d="M472.615,275.692v-98.462h-78.769V128H246.154V98.462h88.615V0H137.846v98.462h88.615V128H78.769v49.231H0v98.462h78.769
			v39.385H49.231v59.077H0v98.462h118.154v-98.462H68.923v-39.385h157.538v39.385h-49.231v98.462h118.154v-98.462h-49.231v-39.385
			h157.538v39.385h-49.231v98.462h118.154v-98.462h-49.231v-59.077h-29.539v-39.385H472.615z M374.154,177.231h-78.769v98.462
			h78.769v39.385H98.462v-39.385h78.769v-98.462H98.462v-29.538h275.692V177.231z"/>
	</g>
</g>
</svg>