<svg xmlns="http://www.w3.org/2000/svg" width="20" height="20" fill="none" role="presentation"><path fill="url(#Edit20Color_svg__a)" d="M12.251 3.542 4 11.794 5.05 14.95l3.173 1.034 8.235-8.235z"></path><path fill="url(#Edit20Color_svg__b)" d="m4.12 11.674-.575.574a2.44 2.44 0 0 0-.655 1.194l-.878 3.95a.5.5 0 0 0 .597.597l3.926-.873a2.5 2.5 0 0 0 1.234-.678l.557-.557S6.72 15.4 5.66 14.34s-1.54-2.667-1.54-2.667"></path><path fill="url(#Edit20Color_svg__c)" d="M12.92 2.873a2.975 2.975 0 0 1 4.207 4.207l-2.083 2.083-4.207-4.207z"></path><path fill="url(#Edit20Color_svg__d)" d="m10.263 5.53 1.635-1.634s.477 1.609 1.537 2.67 2.67 1.537 2.67 1.537L14.487 9.72s-1.617-.47-2.678-1.53-1.546-2.66-1.546-2.66"></path><defs><linearGradient id="Edit20Color_svg__a" x1="10.89" x2="12.789" y1="7.022" y2="12.245" gradientUnits="userSpaceOnUse"><stop stop-color="#FFA43D"></stop><stop offset="1" stop-color="#FB5937"></stop></linearGradient><linearGradient id="Edit20Color_svg__b" x1="1.093" x2="5.654" y1="13.437" y2="17.969" gradientUnits="userSpaceOnUse"><stop offset="0.255" stop-color="#FFD394"></stop><stop offset="1" stop-color="#FF921F"></stop></linearGradient><linearGradient id="Edit20Color_svg__c" x1="16.5" x2="13.86" y1="3.492" y2="5.974" gradientUnits="userSpaceOnUse"><stop stop-color="#F97DBD"></stop><stop offset="1" stop-color="#DD3CE2"></stop></linearGradient><linearGradient id="Edit20Color_svg__d" x1="13.285" x2="9.161" y1="7.883" y2="6.074" gradientUnits="userSpaceOnUse"><stop stop-color="#FF921F"></stop><stop offset="1" stop-color="#FFE994"></stop></linearGradient></defs></svg>