<svg width="512" height="513" viewBox="0 0 512 513" fill="none" xmlns="http://www.w3.org/2000/svg"><rect x="93.808" y="108.86" width="325.297" height="327.126" rx="72.13" fill="url(#a)"/><rect x="93.808" y="108.86" width="325.297" height="327.126" rx="72.13" fill="url(#b)" fill-opacity=".5"/><path d="m138.694 259.153 114.496-43.124 116.469 44.636 5.488-2.04v135.947l-236.453 3.144V259.153Z" fill="url(#c)"/><path d="m138.694 259.153 114.496-43.124 116.469 44.636 5.488-2.04v135.947l-236.453 3.144V259.153Z" fill="url(#d)" fill-opacity=".6"/><path d="m252.494 264.958-19.781-31.501 22.772-180.502c.185-1.465 2.306-1.468 2.495-.003l23.214 180.361-20.2 31.675c-1.986 3.113-6.537 3.097-8.5-.03Z" fill="url(#e)"/><path d="m252.494 264.958-19.781-31.501 22.772-180.502c.185-1.465 2.306-1.468 2.495-.003l23.214 180.361-20.2 31.675c-1.986 3.113-6.537 3.097-8.5-.03Z" fill="url(#f)" fill-opacity=".9"/><path d="m252.494 264.958-19.781-31.501 22.772-180.502c.185-1.465 2.306-1.468 2.495-.003l23.214 180.361-20.2 31.675c-1.986 3.113-6.537 3.097-8.5-.03Z" fill="url(#g)"/><path d="m252.494 264.958-19.781-31.501 22.772-180.502c.185-1.465 2.306-1.468 2.495-.003l23.214 180.361-20.2 31.675c-1.986 3.113-6.537 3.097-8.5-.03Z" fill="url(#h)"/><path d="m252.494 264.958-19.781-31.501 22.772-180.502c.185-1.465 2.306-1.468 2.495-.003l23.214 180.361-20.2 31.675c-1.986 3.113-6.537 3.097-8.5-.03Z" fill="url(#i)"/><path d="m252.494 264.958-19.781-31.501 22.772-180.502c.185-1.465 2.306-1.468 2.495-.003l23.214 180.361-20.2 31.675c-1.986 3.113-6.537 3.097-8.5-.03Z" fill="url(#j)"/><path d="m232.727 233.46 23.85-180.728c.272-2.06-2.498-2.981-3.515-1.17L138.709 255.434c-2.247 4.006 1.61 8.68 5.97 7.234l88.048-29.208Z" fill="url(#k)"/><path d="m232.727 233.46 23.85-180.728c.272-2.06-2.498-2.981-3.515-1.17L138.709 255.434c-2.247 4.006 1.61 8.68 5.97 7.234l88.048-29.208Z" fill="url(#l)"/><path d="M280.98 233.459 256.545 52.68c-.278-2.06 2.492-2.989 3.513-1.178l114.899 203.911c2.257 4.006-1.601 8.69-5.965 7.243l-88.012-29.197Z" fill="url(#m)"/><path d="M280.98 233.459 256.545 52.68c-.278-2.06 2.492-2.989 3.513-1.178l114.899 203.911c2.257 4.006-1.601 8.69-5.965 7.243l-88.012-29.197Z" fill="url(#n)"/><path d="M280.98 233.459 256.545 52.68c-.278-2.06 2.492-2.989 3.513-1.178l114.899 203.911c2.257 4.006-1.601 8.69-5.965 7.243l-88.012-29.197Z" fill="url(#o)"/><path d="M280.98 233.459 256.545 52.68c-.278-2.06 2.492-2.989 3.513-1.178l114.899 203.911c2.257 4.006-1.601 8.69-5.965 7.243l-88.012-29.197Z" fill="url(#p)"/><path d="M254.989 359.731c37.13 0 67.23-30.1 67.23-67.23 0-4.792 3.66-9.026 8.452-9.026h72.961c11.394 0 20.63 9.236 20.63 20.63v87.675c0 24.415-19.792 44.207-44.206 44.207H132.501c-24.415 0-44.207-19.792-44.207-44.207v-87.675c0-11.394 9.237-20.63 20.63-20.63h70.383c4.792 0 8.452 4.234 8.452 9.026 0 37.13 30.1 67.23 67.23 67.23Z" fill="url(#q)"/><path d="M254.989 359.731c37.13 0 67.23-30.1 67.23-67.23 0-4.792 3.66-9.026 8.452-9.026h72.961c11.394 0 20.63 9.236 20.63 20.63v87.675c0 24.415-19.792 44.207-44.206 44.207H132.501c-24.415 0-44.207-19.792-44.207-44.207v-87.675c0-11.394 9.237-20.63 20.63-20.63h70.383c4.792 0 8.452 4.234 8.452 9.026 0 37.13 30.1 67.23 67.23 67.23Z" fill="url(#r)" fill-opacity=".8"/><path d="M254.989 359.731c37.13 0 67.23-30.1 67.23-67.23 0-4.792 3.66-9.026 8.452-9.026h72.961c11.394 0 20.63 9.236 20.63 20.63v87.675c0 24.415-19.792 44.207-44.206 44.207H132.501c-24.415 0-44.207-19.792-44.207-44.207v-87.675c0-11.394 9.237-20.63 20.63-20.63h70.383c4.792 0 8.452 4.234 8.452 9.026 0 37.13 30.1 67.23 67.23 67.23Z" fill="url(#s)"/><path d="M254.989 359.731c37.13 0 67.23-30.1 67.23-67.23 0-4.792 3.66-9.026 8.452-9.026h72.961c11.394 0 20.63 9.236 20.63 20.63v87.675c0 24.415-19.792 44.207-44.206 44.207H132.501c-24.415 0-44.207-19.792-44.207-44.207v-87.675c0-11.394 9.237-20.63 20.63-20.63h70.383c4.792 0 8.452 4.234 8.452 9.026 0 37.13 30.1 67.23 67.23 67.23Z" fill="url(#t)"/><path d="M254.989 359.731c37.13 0 67.23-30.1 67.23-67.23 0-4.792 3.66-9.026 8.452-9.026h72.961c11.394 0 20.63 9.236 20.63 20.63v87.675c0 24.415-19.792 44.207-44.206 44.207H132.501c-24.415 0-44.207-19.792-44.207-44.207v-87.675c0-11.394 9.237-20.63 20.63-20.63h70.383c4.792 0 8.452 4.234 8.452 9.026 0 37.13 30.1 67.23 67.23 67.23Z" fill="url(#u)" fill-opacity=".4"/><path d="M223.409 253.25a2.75 2.75 0 1 0 0-5.5 2.75 2.75 0 0 0 0 5.5Zm44.75 47.25a2.75 2.75 0 1 0 0-5.5 2.75 2.75 0 0 0 0 5.5Zm-34.25-46.75a2 2 0 1 1-4 0 2 2 0 0 1 4 0Zm44.5 60.75a2 2 0 1 0 0-4 2 2 0 0 0 0 4Zm-9 15.5a2 2 0 1 1-4 0 2 2 0 0 1 4 0Zm-29.25-53a2 2 0 1 0 0-4 2 2 0 0 0 0 4Zm-41.613-18.637a1.387 1.387 0 1 1-2.774 0 1.387 1.387 0 0 1 2.774 0Zm-47.387 8.161a1.387 1.387 0 1 0 0-2.774 1.387 1.387 0 0 0 0 2.774Zm95 32.613a1.387 1.387 0 1 0 0-2.774 1.387 1.387 0 0 0 0 2.774Zm44.887 9.976a1.387 1.387 0 1 1-2.774 0 1.387 1.387 0 0 1 2.774 0Zm-89.887 4.774a1.387 1.387 0 1 0 0-2.774 1.387 1.387 0 0 0 0 2.774Zm92.661-64.75a1.387 1.387 0 1 1-2.774 0 1.387 1.387 0 0 1 2.774 0Zm-2.774 7.839a1.387 1.387 0 1 0 0-2.774 1.387 1.387 0 0 0 0 2.774Zm22 16.024a1.387 1.387 0 1 1-2.774 0 1.387 1.387 0 0 1 2.774 0Zm0-2.226a1.387 1.387 0 1 0 0-2.774 1.387 1.387 0 0 0 0 2.774Zm47.637 2.839a1.387 1.387 0 1 1-2.774 0 1.387 1.387 0 0 1 2.774 0Zm-17.137-9.863a1.387 1.387 0 1 0 0-2.774 1.387 1.387 0 0 0 0 2.774Zm-37.113-2.613a1.387 1.387 0 1 1-2.774 0 1.387 1.387 0 0 1 2.774 0Zm0 26.887a1.387 1.387 0 1 0 0-2.774 1.387 1.387 0 0 0 0 2.774ZM201.159 279a2 2 0 1 1-4 0 2 2 0 0 1 4 0Zm-44.75 2a2 2 0 1 0 0-4 2 2 0 0 0 0 4Zm203.5-15a2 2 0 1 1-4 0 2 2 0 0 1 4 0Zm-46.863 31.75a2 2 0 1 0 0-4 2 2 0 0 0 0 4ZM192.296 283a2 2 0 1 1-4 0 2 2 0 0 1 4 0Zm-35.887-15a2 2 0 1 0 0-4 2 2 0 0 0 0 4Z" fill="#FFD748"/><defs><linearGradient id="a" x1="399.39" y1="88.156" x2="35.809" y2="635.465" gradientUnits="userSpaceOnUse"><stop offset=".29" stop-color="#E7E7E7"/><stop offset=".628" stop-color="#C9F5FF"/></linearGradient><linearGradient id="c" x1="256.92" y1="241" x2="254.85" y2="397.688" gradientUnits="userSpaceOnUse"><stop offset=".064" stop-color="#C454FF"/><stop offset=".44" stop-color="#FF98B4"/><stop offset=".745" stop-color="#FFDD5E"/></linearGradient><linearGradient id="e" x1="272.944" y1="185.75" x2="240.944" y2="181.75" gradientUnits="userSpaceOnUse"><stop offset=".749" stop-color="#EEE0D5"/><stop offset="1" stop-color="#FFF6EF"/></linearGradient><linearGradient id="f" x1="224.944" y1="178.25" x2="280.924" y2="178.25" gradientUnits="userSpaceOnUse"><stop offset=".438" stop-color="#FFF6EF" stop-opacity="0"/><stop offset=".573" stop-color="#B6A698"/><stop offset=".943" stop-color="#DFCDBD"/></linearGradient><linearGradient id="g" x1="252.194" y1="232" x2="273.944" y2="246.75" gradientUnits="userSpaceOnUse"><stop offset=".422" stop-color="#CAB3A1" stop-opacity="0"/><stop offset=".573" stop-color="#CAB3A1"/><stop offset="1" stop-color="#DFCFC2"/></linearGradient><linearGradient id="h" x1="253.444" y1="231" x2="236.694" y2="241.75" gradientUnits="userSpaceOnUse"><stop offset=".286" stop-color="#CAB3A1" stop-opacity="0"/><stop offset=".492" stop-color="#CAB3A1"/><stop offset="1" stop-color="#D9C7B8"/></linearGradient><linearGradient id="k" x1="188.444" y1="135.25" x2="245.194" y2="156.25" gradientUnits="userSpaceOnUse"><stop offset=".193" stop-color="#FBEBDF"/><stop offset=".726" stop-color="#FFF6EF"/></linearGradient><linearGradient id="l" x1="186.194" y1="227.75" x2="194.625" y2="248.316" gradientUnits="userSpaceOnUse"><stop offset=".245" stop-color="#CAB3A1" stop-opacity="0"/><stop offset=".492" stop-color="#CAB3A1"/><stop offset="1" stop-color="#D9C7B8"/></linearGradient><linearGradient id="m" x1="259.194" y1="137.5" x2="303.944" y2="127.5" gradientUnits="userSpaceOnUse"><stop stop-color="#FFF7F0"/><stop offset=".905" stop-color="#FFF6EF"/></linearGradient><linearGradient id="n" x1="318.288" y1="150.25" x2="277.194" y2="173.5" gradientUnits="userSpaceOnUse"><stop offset=".106" stop-color="#FFFCF9"/><stop offset=".358" stop-color="#FFF8F1" stop-opacity="0"/></linearGradient><linearGradient id="o" x1="327.418" y1="226.903" x2="318.272" y2="249.023" gradientUnits="userSpaceOnUse"><stop offset=".266" stop-color="#CAB3A1" stop-opacity="0"/><stop offset=".492" stop-color="#CAB3A1"/><stop offset="1" stop-color="#D9C7B8"/></linearGradient><linearGradient id="q" x1="256.278" y1="283.475" x2="256.278" y2="442.719" gradientUnits="userSpaceOnUse"><stop offset=".099" stop-color="#E7E7E7"/><stop offset=".516" stop-color="#E7E7E7"/><stop offset=".667" stop-color="#D7D7D7"/><stop offset=".818" stop-color="#BCBCBC"/><stop offset=".88" stop-color="#C7C7C7"/><stop offset=".975" stop-color="#F2F2F2"/></linearGradient><linearGradient id="r" x1="223" y1="359.731" x2="81" y2="359.731" gradientUnits="userSpaceOnUse"><stop offset=".835" stop-color="#D7D7D7" stop-opacity="0"/><stop offset=".912" stop-color="#BCBCBC"/><stop offset="1" stop-color="#F2F2F2"/></linearGradient><linearGradient id="s" x1="256.278" y1="283.475" x2="256.278" y2="442.719" gradientUnits="userSpaceOnUse"><stop offset=".017" stop-color="#fff"/><stop offset=".099" stop-color="#fff" stop-opacity="0"/></linearGradient><radialGradient id="b" cx="0" cy="0" r="1" gradientUnits="userSpaceOnUse" gradientTransform="matrix(98.01231 -4 7.74053 189.66712 158.444 316.25)"><stop offset=".327" stop-color="#9EA8AE"/><stop offset=".599" stop-color="#EAEDEF" stop-opacity="0"/></radialGradient><radialGradient id="d" cx="0" cy="0" r="1" gradientUnits="userSpaceOnUse" gradientTransform="matrix(0 90.8432 -224.457 0 256.92 216.029)"><stop offset=".462" stop-color="#6C1B8C"/><stop offset=".825" stop-color="#CB5EF6" stop-opacity="0"/></radialGradient><radialGradient id="i" cx="0" cy="0" r="1" gradientUnits="userSpaceOnUse" gradientTransform="matrix(-21.37497 7.50007 -4.66202 -13.28663 260.069 259.125)"><stop stop-color="#CEB9A7"/><stop offset="1" stop-color="#CEB9A7" stop-opacity="0"/></radialGradient><radialGradient id="j" cx="0" cy="0" r="1" gradientUnits="userSpaceOnUse" gradientTransform="rotate(178.798 126.762 134.594) scale(17.8789 16.1914)"><stop offset=".243" stop-color="#DBCCBF"/><stop offset="1" stop-color="#D5C2B2" stop-opacity="0"/></radialGradient><radialGradient id="p" cx="0" cy="0" r="1" gradientUnits="userSpaceOnUse" gradientTransform="matrix(3.4998 85.5 -48.17736 1.97206 268.943 46.75)"><stop offset=".73" stop-color="#FFF7F0"/><stop offset="1" stop-color="#FFF7F0" stop-opacity="0"/></radialGradient><radialGradient id="t" cx="0" cy="0" r="1" gradientUnits="userSpaceOnUse" gradientTransform="scale(141.278 159.244) rotate(90 .017 1.797)"><stop offset=".504" stop-color="#fff"/><stop offset=".595" stop-color="#fff" stop-opacity="0"/></radialGradient><radialGradient id="u" cx="0" cy="0" r="1" gradientUnits="userSpaceOnUse" gradientTransform="matrix(21.5 -20.00002 44.05798 47.36228 95.5 420.219)"><stop offset=".267" stop-color="#BDBDBD"/><stop offset="1" stop-color="#BDBDBD" stop-opacity="0"/></radialGradient></defs></svg>