<svg id="h-o-l-ds" width="250" height="250" viewBox="0 0 250 250" version="1.1"
     xmlns="http://www.w3.org/2000/svg" xmlns:xlink="http://www.w3.org/1999/xlink">
  
  <circle class="Rang" layer="0" id="Rang0" cx="125" cy="125" r="124" fill="none" stroke="#ffffff" stroke-width="2" />
  
  <text id="RangText1" layer="1" font-size="18" font-style="normal" font-family="Arial" fill="#ffffff"
        stroke="none" font-weight="normal" transform="rotate(0, 125, 125)" textLength="667.40679">
    <defs>
      <path id="cnI6drCGpXbc1" d="M 125 125 m -107, 0 a 107,107 0 1,1 214,0 a 107,107 0 1,1 -214,0" />
    </defs>
    <textPath href="#cnI6drCGpXbc1" xlink:href="#cnI6drCGpXbc1" textLength="667.40679">
      Ministry of Health - Ethiopia&#160;&#160;&#160;&#160;|&#160;&#160;&#160;&#160;ጤና ሚኒስቴር - ኢትዮጵያ&#160;&#160;&#160;&#160;&#160;|&#160;&#160;&#160;
    </textPath>
  </text>

  <g transform="translate(125,125) scale(2) translate(-30,-30)" fill="#ffffff">
    <g transform="translate(0.000000,60.000000) scale(0.100000,-0.100000)">
      <path d="M199 493 c-74 -38 -111 -93 -117 -172 -5 -71 10 -121 51 -167 89 -102 245 -102 334 0 92 104 59 273 -66 338 -71 37 -129 37 -202 1z m181 -23 c32 -17 23 -30 -22 -30 -32 0 -39 -3 -28 -10 8 -5 36 -10 62 -10 30 0 52 -6 64 -17 16 -16 14 -18 -32 -28 -53 -12 -114 -41 -114 -53 0 -26 24 -27 68 -5 62 31 106 28 110 -8 2 -21 -2 -28 -22 -33 -19 -5 -26 -13 -26 -31 0 -18 4 -23 15 -19 23 9 18 -17 -10 -51 -30 -37 -36 -31 -24 23 6 29 6 56 -1 83 -9 33 -13 38 -29 30 -13 -7 -16 -18 -13 -39 5 -40 -17 -53 -37 -21 -24 36 -72 89 -81 89 -22 0 -17 -34 8 -60 40 -40 58 -85 42 -105 -20 -25 -42 1 -34 40 7 38 -12 57 -31 32 -11 -15 -17 -14 -73 11 -54 23 -62 30 -62 54 0 25 4 28 34 28 20 0 36 6 39 14 7 19 -1 26 -30 26 -21 0 -22 3 -13 20 20 37 126 22 180 -26 10 -8 21 -10 30 -4 30 19 -46 67 -114 72 -20 1 -40 6 -42 10 -3 4 -4 8 -2 8 2 0 21 7 43 15 42 16 111 13 145 -5z m-162 -297 c24 -25 41 -47 38 -51 -4 -3 -21 11 -40 31 -36 39 -49 47 -40 22 10 -24 -12 -17 -30 10 -39 60 8 52 72 -12z"/>
      <path d="M223 378 c-11 -13 -28 -38 -38 -57 -17 -33 -17 -35 1 -48 17 -12 20 -11 28 14 4 15 21 44 37 65 24 30 26 37 13 42 -21 8 -18 9 -41 -16z"/>
    </g>
  </g>
</svg>

